<svg version="1.1" id="Layer_1" xmlns="http://www.w3.org/2000/svg" xmlns:xlink="http://www.w3.org/1999/xlink" x="0px" y="0px"
	 width="100%" viewBox="0 0 631 173" enable-background="new 0 0 631 173" xml:space="preserve">
<path fill="#FEFEFE" opacity="1.000000" stroke="none" 
	d="
M606.000000,174.000000 
	C404.000031,174.000000 202.500076,174.000000 1.000081,174.000000 
	C1.000054,116.333382 1.000054,58.666759 1.000027,1.000104 
	C211.333252,1.000070 421.666504,1.000070 631.999817,1.000035 
	C631.999878,58.666569 631.999878,116.333138 631.999939,173.999847 
	C623.500000,174.000000 615.000000,174.000000 606.000000,174.000000 
M46.988422,91.500015 
	C46.988422,101.079597 46.988422,110.659172 46.988422,120.260002 
	C51.559189,120.260002 55.490921,120.260002 59.832649,120.260002 
	C59.832649,105.472343 59.832649,90.945526 59.832649,76.418709 
	C61.085602,77.792908 61.577656,79.304787 61.996689,80.836639 
	C64.974785,91.723724 67.839600,102.643097 70.950844,113.491867 
	C72.332497,118.309647 75.777977,120.959091 80.894714,121.043411 
	C86.105347,121.129303 89.224464,118.197220 90.929489,113.582253 
	C91.789764,111.253754 92.390732,108.824242 93.024437,106.418144 
	C95.748444,96.075539 98.441078,85.724663 101.145142,75.376793 
	C101.445694,75.424911 101.746246,75.473030 102.046799,75.521149 
	C102.046799,90.380455 102.046799,105.239769 102.046799,120.187088 
	C106.488510,120.187088 110.556610,120.187088 114.809929,120.187088 
	C114.809929,103.535538 114.978806,87.222153 114.734993,70.914940 
	C114.621872,63.348877 110.225632,58.915237 103.643997,58.621346 
	C97.288803,58.337563 92.894020,62.158260 90.512283,70.608345 
	C88.440788,77.957733 86.777992,85.421577 84.876984,92.820045 
	C83.763672,97.152893 82.537560,101.456749 81.362190,105.773651 
	C79.981606,104.077911 79.476227,102.536903 79.058548,100.972488 
	C76.146660,90.066162 73.436348,79.101723 70.289391,68.263947 
	C68.166473,60.952847 63.254421,57.861115 56.606220,58.851791 
	C50.789204,59.718613 47.196346,64.327965 47.032772,71.517845 
	C46.888889,77.842316 46.993534,84.172424 46.988422,91.500015 
M281.505554,94.858170 
	C284.271423,94.858170 287.037292,94.858170 290.191223,94.858170 
	C290.191223,103.669464 290.191223,111.908653 290.191223,120.288628 
	C294.867767,120.288628 299.128265,120.288628 303.515686,120.288628 
	C303.515686,99.836205 303.515686,79.642960 303.515686,59.422333 
	C298.919403,59.422333 294.670898,59.422333 289.887573,59.422333 
	C289.887573,67.239296 289.887573,74.791077 289.887573,82.209915 
	C283.730774,82.209915 278.120941,82.209915 271.937042,82.209915 
	C271.937042,74.430321 271.937042,66.877510 271.937042,59.333591 
	C267.243805,59.333591 263.132080,59.333591 258.771973,59.333591 
	C258.771973,79.733521 258.771973,99.941063 258.771973,120.259186 
	C263.339600,120.259186 267.586182,120.259186 272.224304,120.259186 
	C272.224304,111.711739 272.224304,103.445274 272.224304,94.858170 
	C275.251007,94.858170 277.886169,94.858170 281.505554,94.858170 
M468.065796,117.074715 
	C471.845581,123.114159 477.381256,119.747383 482.313110,120.455345 
	C482.313110,102.946686 482.313110,86.164047 482.313110,69.214157 
	C478.006165,69.214157 473.922119,69.214157 469.680054,69.214157 
	C469.591278,70.056343 469.566040,70.698029 469.445007,71.321129 
	C469.340790,71.857758 469.127441,72.373184 468.890350,73.126770 
	C459.966949,66.512756 450.869720,66.466400 441.834595,71.357796 
	C432.655426,76.327187 428.534760,84.676247 428.549469,94.875206 
	C428.563843,104.850792 432.475464,113.078407 441.496094,118.046608 
	C450.125610,122.799408 458.888336,123.159271 468.065796,117.074715 
M180.499603,78.063431 
	C172.506271,89.720596 173.283737,104.481316 182.386139,113.880447 
	C191.082474,122.860268 204.467911,123.958092 215.664566,116.535728 
	C215.932205,117.883789 216.191757,119.191200 216.406097,120.270767 
	C220.793930,120.270767 224.750717,120.270767 228.753418,120.270767 
	C228.753418,103.101845 228.753418,86.186470 228.753418,69.176804 
	C224.384674,69.176804 220.273285,69.176804 216.171432,69.176804 
	C216.023483,70.575081 215.895294,71.786697 215.745239,73.205055 
	C203.034943,65.034546 190.717285,66.680199 180.499603,78.063431 
M312.792999,80.386795 
	C305.502411,93.690460 308.499878,108.644669 320.051392,116.745567 
	C330.866791,124.330261 348.952942,123.013138 358.070374,111.013718 
	C354.635681,108.548355 351.212311,106.091118 347.893097,103.708656 
	C337.796356,112.488983 325.641937,110.070419 323.030151,98.847679 
	C336.014069,98.847679 348.917572,98.847679 362.000610,98.847679 
	C363.271851,92.738838 362.220642,87.276031 359.634583,82.143028 
	C350.675140,64.359634 324.397003,62.986748 312.792999,80.386795 
M591.022827,72.385757 
	C576.119080,64.168488 559.353577,68.167191 552.067810,81.676903 
	C545.530029,93.799438 548.989929,108.888786 560.119568,116.749489 
	C570.607788,124.157127 588.907959,123.275810 598.071777,110.965057 
	C594.762146,108.568230 591.455200,106.173294 588.224426,103.833549 
	C577.079590,112.375130 565.761230,110.151886 563.082520,98.808823 
	C576.068481,98.808823 588.974609,98.808823 602.268616,98.808823 
	C603.435486,87.907021 600.307312,79.254417 591.022827,72.385757 
M543.483093,120.522598 
	C544.349365,119.682358 545.860596,118.913246 545.962585,117.988724 
	C546.285522,115.060127 546.081848,112.073463 546.081848,109.109253 
	C545.721924,109.382675 545.361938,109.656097 545.002014,109.929520 
	C543.040344,108.271553 539.567444,106.762665 539.386536,104.929039 
	C538.711853,98.089500 539.117065,91.143440 539.117065,84.310257 
	C541.539490,84.186317 543.336731,84.094353 545.225342,83.997726 
	C545.225342,79.972122 545.225342,76.215729 545.225342,72.314133 
	C543.020996,72.207497 541.105164,72.114815 538.809387,72.003746 
	C538.809387,68.080139 538.809387,64.510345 538.809387,60.440460 
	C534.066040,61.816372 529.847412,63.040081 525.566345,64.281906 
	C525.566345,67.096207 525.566345,69.398293 525.566345,71.800018 
	C523.949463,72.066261 522.531372,72.299767 521.115479,72.532906 
	C521.115479,76.398827 521.115479,80.002968 521.115479,83.702278 
	C522.716797,83.942337 524.141724,84.155960 525.726196,84.393494 
	C525.726196,90.702065 525.546692,96.866318 525.764038,103.016548 
	C526.201050,115.381424 530.320251,119.552635 543.483093,120.522598 
M396.078949,75.527306 
	C396.078949,73.241577 396.078949,70.955849 396.078949,67.255951 
	C390.267395,69.647156 385.406616,71.647156 380.496552,73.667435 
	C380.388184,72.491470 380.239990,70.883614 380.080688,69.155167 
	C375.936005,69.155167 371.996826,69.155167 368.076599,69.155167 
	C368.076599,86.326447 368.076599,103.333740 368.076599,120.240494 
	C372.575165,120.240494 376.680511,120.240494 381.006958,120.240494 
	C381.006958,112.990250 380.944885,106.014694 381.020660,99.040634 
	C381.152863,86.880424 383.989349,83.473129 396.078949,81.203384 
	C396.078949,79.679001 396.078949,78.057976 396.078949,75.527306 
M411.791901,120.348503 
	C412.103790,118.972420 412.655304,117.601929 412.687531,116.219322 
	C412.858429,108.893318 412.640503,101.549644 413.054749,94.240280 
	C413.497375,86.429932 417.626068,82.545448 425.297241,81.839684 
	C426.068451,81.768730 426.821228,81.497070 427.855164,81.254623 
	C427.855164,79.048492 427.855194,77.072197 427.855194,75.095909 
	C427.855194,72.992134 427.855164,70.888359 427.855164,68.178619 
	C424.449158,68.907501 421.575195,69.118896 419.056549,70.176437 
	C416.598267,71.208603 414.502930,73.105118 412.134491,74.698746 
	C412.033539,72.722397 411.944122,70.971992 411.860321,69.331467 
	C407.477295,69.331467 403.414093,69.331467 399.349091,69.331467 
	C399.349091,86.449913 399.349091,103.218079 399.349091,120.519173 
	C403.333710,120.519173 407.125061,120.519173 411.791901,120.348503 
M502.180328,107.541534 
	C502.226044,104.218834 502.081207,100.880531 502.351807,97.576241 
	C503.316284,85.799103 505.594391,83.337753 517.154541,81.323776 
	C517.154541,77.175697 517.154541,72.994904 517.154541,67.289146 
	C511.462006,69.699165 506.633789,71.743271 501.831848,73.776245 
	C501.775452,72.798874 501.675781,71.071838 501.574860,69.323502 
	C497.199493,69.323502 493.159424,69.323502 489.313965,69.323502 
	C489.313965,86.518402 489.313965,103.378036 489.313965,120.236443 
	C493.724945,120.236443 497.803955,120.236443 502.180328,120.236443 
	C502.180328,116.140083 502.180328,112.330734 502.180328,107.541534 
M145.824051,73.584846 
	C145.824051,89.138710 145.824051,104.692581 145.824051,120.229523 
	C150.654221,120.229523 154.742035,120.229523 159.080414,120.229523 
	C159.080414,113.293091 159.043320,106.644615 159.088318,99.996704 
	C159.175537,87.113594 161.680206,83.932030 173.965317,81.152031 
	C173.965317,77.102509 173.965317,73.008186 173.965317,67.439941 
	C168.426834,69.676552 163.576691,71.635193 158.772446,73.575302 
	C158.605103,72.475983 158.346008,70.773933 158.074936,68.993118 
	C154.887512,68.993118 152.041824,69.200661 149.240585,68.936676 
	C146.239944,68.653885 145.394821,69.922798 145.824051,73.584846 
M123.977928,104.497337 
	C123.977928,109.752335 123.977928,115.007339 123.977928,120.227448 
	C128.876389,120.227448 133.128021,120.227448 137.358154,120.227448 
	C137.358154,105.527634 137.358154,91.153458 137.358154,76.741333 
	C132.718536,76.741333 128.461075,76.741333 123.977928,76.741333 
	C123.977928,85.853508 123.977928,94.675827 123.977928,104.497337 
M138.103699,62.368347 
	C136.461319,58.279354 133.442917,56.432064 129.122620,57.324692 
	C125.200195,58.135113 122.601143,62.166119 123.300041,65.851135 
	C124.060402,69.860283 127.417358,72.401047 131.544464,72.091080 
	C136.184906,71.742554 138.378662,68.798813 138.103699,62.368347 
z"/>
<path fill="#070808" opacity="1.000000" stroke="none" 
	d="
M46.988419,91.000031 
	C46.993534,84.172424 46.888889,77.842316 47.032772,71.517845 
	C47.196346,64.327965 50.789204,59.718613 56.606220,58.851791 
	C63.254421,57.861115 68.166473,60.952847 70.289391,68.263947 
	C73.436348,79.101723 76.146660,90.066162 79.058548,100.972488 
	C79.476227,102.536903 79.981606,104.077911 81.362190,105.773651 
	C82.537560,101.456749 83.763672,97.152893 84.876984,92.820045 
	C86.777992,85.421577 88.440788,77.957733 90.512283,70.608345 
	C92.894020,62.158260 97.288803,58.337563 103.643997,58.621346 
	C110.225632,58.915237 114.621872,63.348877 114.734993,70.914940 
	C114.978806,87.222153 114.809929,103.535538 114.809929,120.187088 
	C110.556610,120.187088 106.488510,120.187088 102.046799,120.187088 
	C102.046799,105.239769 102.046799,90.380455 102.046799,75.521149 
	C101.746246,75.473030 101.445694,75.424911 101.145142,75.376793 
	C98.441078,85.724663 95.748444,96.075539 93.024437,106.418144 
	C92.390732,108.824242 91.789764,111.253754 90.929489,113.582253 
	C89.224464,118.197220 86.105347,121.129303 80.894714,121.043411 
	C75.777977,120.959091 72.332497,118.309647 70.950844,113.491867 
	C67.839600,102.643097 64.974785,91.723724 61.996689,80.836639 
	C61.577656,79.304787 61.085602,77.792908 59.832649,76.418709 
	C59.832649,90.945526 59.832649,105.472343 59.832649,120.260002 
	C55.490921,120.260002 51.559189,120.260002 46.988422,120.260002 
	C46.988422,110.659172 46.988422,101.079597 46.988419,91.000031 
z"/>
<path fill="#0C0D0D" opacity="1.000000" stroke="none" 
	d="
M281.013428,94.858170 
	C277.886169,94.858170 275.251007,94.858170 272.224304,94.858170 
	C272.224304,103.445274 272.224304,111.711739 272.224304,120.259186 
	C267.586182,120.259186 263.339600,120.259186 258.771973,120.259186 
	C258.771973,99.941063 258.771973,79.733521 258.771973,59.333591 
	C263.132080,59.333591 267.243805,59.333591 271.937042,59.333591 
	C271.937042,66.877510 271.937042,74.430321 271.937042,82.209915 
	C278.120941,82.209915 283.730774,82.209915 289.887573,82.209915 
	C289.887573,74.791077 289.887573,67.239296 289.887573,59.422333 
	C294.670898,59.422333 298.919403,59.422333 303.515686,59.422333 
	C303.515686,79.642960 303.515686,99.836205 303.515686,120.288628 
	C299.128265,120.288628 294.867767,120.288628 290.191223,120.288628 
	C290.191223,111.908653 290.191223,103.669464 290.191223,94.858170 
	C287.037292,94.858170 284.271423,94.858170 281.013428,94.858170 
z"/>
<path fill="#090A0A" opacity="1.000000" stroke="none" 
	d="
M467.747009,117.314392 
	C458.888336,123.159271 450.125610,122.799408 441.496094,118.046608 
	C432.475464,113.078407 428.563843,104.850792 428.549469,94.875206 
	C428.534760,84.676247 432.655426,76.327187 441.834595,71.357796 
	C450.869720,66.466400 459.966949,66.512756 468.890350,73.126770 
	C469.127441,72.373184 469.340790,71.857758 469.445007,71.321129 
	C469.566040,70.698029 469.591278,70.056343 469.680054,69.214157 
	C473.922119,69.214157 478.006165,69.214157 482.313110,69.214157 
	C482.313110,86.164047 482.313110,102.946686 482.313110,120.455345 
	C477.381256,119.747383 471.845581,123.114159 467.747009,117.314392 
M442.180725,95.306114 
	C443.665558,103.459702 447.368011,107.615479 454.125458,108.713303 
	C459.543304,109.593491 465.397888,106.731354 467.988037,101.847649 
	C471.005066,96.159119 470.643372,90.607605 466.836761,85.442505 
	C463.609741,81.063774 457.568542,79.282288 452.014191,80.995323 
	C445.426727,83.026955 442.570068,87.897591 442.180725,95.306114 
z"/>
<path fill="#060707" opacity="1.000000" stroke="none" 
	d="
M180.730865,77.786377 
	C190.717285,66.680199 203.034943,65.034546 215.745239,73.205055 
	C215.895294,71.786697 216.023483,70.575081 216.171432,69.176804 
	C220.273285,69.176804 224.384674,69.176804 228.753418,69.176804 
	C228.753418,86.186470 228.753418,103.101845 228.753418,120.270767 
	C224.750717,120.270767 220.793930,120.270767 216.406097,120.270767 
	C216.191757,119.191200 215.932205,117.883789 215.664566,116.535728 
	C204.467911,123.958092 191.082474,122.860268 182.386139,113.880447 
	C173.283737,104.481316 172.506271,89.720596 180.730865,77.786377 
M189.238480,90.310822 
	C189.138794,92.463348 188.774155,94.642387 188.986465,96.763687 
	C189.793259,104.824539 197.686981,110.324562 205.535843,108.449982 
	C212.483475,106.790642 216.382355,101.643471 216.291229,94.251007 
	C216.207123,87.425972 212.242569,82.280304 205.920456,80.790527 
	C198.740524,79.098618 193.080063,82.126305 189.238480,90.310822 
z"/>
<path fill="#070808" opacity="1.000000" stroke="none" 
	d="
M312.948547,80.056580 
	C324.397003,62.986748 350.675140,64.359634 359.634583,82.143028 
	C362.220642,87.276031 363.271851,92.738838 362.000610,98.847679 
	C348.917572,98.847679 336.014069,98.847679 323.030151,98.847679 
	C325.641937,110.070419 337.796356,112.488983 347.893097,103.708656 
	C351.212311,106.091118 354.635681,108.548355 358.070374,111.013718 
	C348.952942,123.013138 330.866791,124.330261 320.051392,116.745567 
	C308.499878,108.644669 305.502411,93.690460 312.948547,80.056580 
M335.501953,89.000343 
	C339.881439,89.000343 344.260925,89.000343 348.868073,89.000343 
	C345.951141,82.465927 341.496063,79.683113 335.037872,79.957756 
	C329.061005,80.211937 325.336456,82.947632 323.130341,89.000343 
	C327.016968,89.000343 330.767944,89.000343 335.501953,89.000343 
z"/>
<path fill="#070808" opacity="1.000000" stroke="none" 
	d="
M591.303101,72.618690 
	C600.307312,79.254417 603.435486,87.907021 602.268616,98.808823 
	C588.974609,98.808823 576.068481,98.808823 563.082520,98.808823 
	C565.761230,110.151886 577.079590,112.375130 588.224426,103.833549 
	C591.455200,106.173294 594.762146,108.568230 598.071777,110.965057 
	C588.907959,123.275810 570.607788,124.157127 560.119568,116.749489 
	C548.989929,108.888786 545.530029,93.799438 552.067810,81.676903 
	C559.353577,68.167191 576.119080,64.168488 591.303101,72.618690 
M570.739868,80.881538 
	C567.974731,83.130226 565.209595,85.378922 562.444458,87.627609 
	C562.756592,88.038437 563.068787,88.449265 563.380920,88.860092 
	C571.791016,88.860092 580.201172,88.860092 588.653015,88.860092 
	C586.215454,81.574860 580.647522,78.916870 570.739868,80.881538 
z"/>
<path fill="#060707" opacity="1.000000" stroke="none" 
	d="
M543.054810,120.523163 
	C530.320251,119.552635 526.201050,115.381424 525.764038,103.016548 
	C525.546692,96.866318 525.726196,90.702065 525.726196,84.393494 
	C524.141724,84.155960 522.716797,83.942337 521.115479,83.702278 
	C521.115479,80.002968 521.115479,76.398827 521.115479,72.532906 
	C522.531372,72.299767 523.949463,72.066261 525.566345,71.800018 
	C525.566345,69.398293 525.566345,67.096207 525.566345,64.281906 
	C529.847412,63.040081 534.066040,61.816372 538.809387,60.440460 
	C538.809387,64.510345 538.809387,68.080139 538.809387,72.003746 
	C541.105164,72.114815 543.020996,72.207497 545.225342,72.314133 
	C545.225342,76.215729 545.225342,79.972122 545.225342,83.997726 
	C543.336731,84.094353 541.539490,84.186317 539.117065,84.310257 
	C539.117065,91.143440 538.711853,98.089500 539.386536,104.929039 
	C539.567444,106.762665 543.040344,108.271553 545.002014,109.929520 
	C545.361938,109.656097 545.721924,109.382675 546.081848,109.109253 
	C546.081848,112.073463 546.285522,115.060127 545.962585,117.988724 
	C545.860596,118.913246 544.349365,119.682358 543.054810,120.523163 
z"/>
<path fill="#050606" opacity="1.000000" stroke="none" 
	d="
M396.078949,75.982132 
	C396.078949,78.057976 396.078949,79.679001 396.078949,81.203384 
	C383.989349,83.473129 381.152863,86.880424 381.020660,99.040634 
	C380.944885,106.014694 381.006958,112.990250 381.006958,120.240494 
	C376.680511,120.240494 372.575165,120.240494 368.076599,120.240494 
	C368.076599,103.333740 368.076599,86.326447 368.076599,69.155167 
	C371.996826,69.155167 375.936005,69.155167 380.080688,69.155167 
	C380.239990,70.883614 380.388184,72.491470 380.496552,73.667435 
	C385.406616,71.647156 390.267395,69.647156 396.078949,67.255951 
	C396.078949,70.955849 396.078949,73.241577 396.078949,75.982132 
z"/>
<path fill="#0B0C0C" opacity="1.000000" stroke="none" 
	d="
M411.354156,120.433838 
	C407.125061,120.519173 403.333710,120.519173 399.349091,120.519173 
	C399.349091,103.218079 399.349091,86.449913 399.349091,69.331467 
	C403.414093,69.331467 407.477295,69.331467 411.860321,69.331467 
	C411.944122,70.971992 412.033539,72.722397 412.134491,74.698746 
	C414.502930,73.105118 416.598267,71.208603 419.056549,70.176437 
	C421.575195,69.118896 424.449158,68.907501 427.855164,68.178619 
	C427.855164,70.888359 427.855194,72.992134 427.855194,75.095909 
	C427.855194,77.072197 427.855164,79.048492 427.855164,81.254623 
	C426.821228,81.497070 426.068451,81.768730 425.297241,81.839684 
	C417.626068,82.545448 413.497375,86.429932 413.054749,94.240280 
	C412.640503,101.549644 412.858429,108.893318 412.687531,116.219322 
	C412.655304,117.601929 412.103790,118.972420 411.354156,120.433838 
z"/>
<path fill="#070808" opacity="1.000000" stroke="none" 
	d="
M502.180328,108.031464 
	C502.180328,112.330734 502.180328,116.140083 502.180328,120.236443 
	C497.803955,120.236443 493.724945,120.236443 489.313965,120.236443 
	C489.313965,103.378036 489.313965,86.518402 489.313965,69.323502 
	C493.159424,69.323502 497.199493,69.323502 501.574860,69.323502 
	C501.675781,71.071838 501.775452,72.798874 501.831848,73.776245 
	C506.633789,71.743271 511.462006,69.699165 517.154541,67.289146 
	C517.154541,72.994904 517.154541,77.175697 517.154541,81.323776 
	C505.594391,83.337753 503.316284,85.799103 502.351807,97.576241 
	C502.081207,100.880531 502.226044,104.218834 502.180328,108.031464 
z"/>
<path fill="#050606" opacity="1.000000" stroke="none" 
	d="
M145.824081,73.095413 
	C145.394821,69.922798 146.239944,68.653885 149.240585,68.936676 
	C152.041824,69.200661 154.887512,68.993118 158.074936,68.993118 
	C158.346008,70.773933 158.605103,72.475983 158.772446,73.575302 
	C163.576691,71.635193 168.426834,69.676552 173.965317,67.439941 
	C173.965317,73.008186 173.965317,77.102509 173.965317,81.152031 
	C161.680206,83.932030 159.175537,87.113594 159.088318,99.996704 
	C159.043320,106.644615 159.080414,113.293091 159.080414,120.229523 
	C154.742035,120.229523 150.654221,120.229523 145.824051,120.229523 
	C145.824051,104.692581 145.824051,89.138710 145.824081,73.095413 
z"/>
<path fill="#0D0E0E" opacity="1.000000" stroke="none" 
	d="
M123.977928,103.997742 
	C123.977928,94.675827 123.977928,85.853508 123.977928,76.741333 
	C128.461075,76.741333 132.718536,76.741333 137.358154,76.741333 
	C137.358154,91.153458 137.358154,105.527634 137.358154,120.227448 
	C133.128021,120.227448 128.876389,120.227448 123.977928,120.227448 
	C123.977928,115.007339 123.977928,109.752335 123.977928,103.997742 
z"/>
<path fill="#090A0A" opacity="1.000000" stroke="none" 
	d="
M138.174072,62.734425 
	C138.378662,68.798813 136.184906,71.742554 131.544464,72.091080 
	C127.417358,72.401047 124.060402,69.860283 123.300041,65.851135 
	C122.601143,62.166119 125.200195,58.135113 129.122620,57.324692 
	C133.442917,56.432064 136.461319,58.279354 138.174072,62.734425 
z"/>
<path fill="#F9F9F9" opacity="1.000000" stroke="none" 
	d="
M442.177582,94.903976 
	C442.570068,87.897591 445.426727,83.026955 452.014191,80.995323 
	C457.568542,79.282288 463.609741,81.063774 466.836761,85.442505 
	C470.643372,90.607605 471.005066,96.159119 467.988037,101.847649 
	C465.397888,106.731354 459.543304,109.593491 454.125458,108.713303 
	C447.368011,107.615479 443.665558,103.459702 442.177582,94.903976 
z"/>
<path fill="#FCFCFC" opacity="1.000000" stroke="none" 
	d="
M189.390839,89.930649 
	C193.080063,82.126305 198.740524,79.098618 205.920456,80.790527 
	C212.242569,82.280304 216.207123,87.425972 216.291229,94.251007 
	C216.382355,101.643471 212.483475,106.790642 205.535843,108.449982 
	C197.686981,110.324562 189.793259,104.824539 188.986465,96.763687 
	C188.774155,94.642387 189.138794,92.463348 189.390839,89.930649 
z"/>
<path fill="#F9F9F9" opacity="1.000000" stroke="none" 
	d="
M335.010437,89.000343 
	C330.767944,89.000343 327.016968,89.000343 323.130341,89.000343 
	C325.336456,82.947632 329.061005,80.211937 335.037872,79.957756 
	C341.496063,79.683113 345.951141,82.465927 348.868073,89.000343 
	C344.260925,89.000343 339.881439,89.000343 335.010437,89.000343 
z"/>
<path fill="#F7F7F7" opacity="1.000000" stroke="none" 
	d="
M571.114502,80.721817 
	C580.647522,78.916870 586.215454,81.574860 588.653015,88.860092 
	C580.201172,88.860092 571.791016,88.860092 563.380920,88.860092 
	C563.068787,88.449265 562.756592,88.038437 562.444458,87.627609 
	C565.209595,85.378922 567.974731,83.130226 571.114502,80.721817 
z"/>
</svg>